<svg xmlns="http://www.w3.org/2000/svg" width="59.402298875774136" height="63.908046065209646"><rect id="backgroundrect" width="100%" height="100%" x="0" y="0" fill="none" stroke="none" class="" style=""/><title>prescription-Healthcare-pharmacy-Pill</title><g class="currentLayer" style=""><title>Layer 1</title><g id="svg_1"><path d="M7,60h3v1a1,1,0,0,0,1,1H57a1,1,0,0,0,1-1V43a1,1,0,0,0-1-1H56V40h1a1,1,0,0,0,1-1V35a1,1,0,0,0-1-1H50V11a1,1,0,0,0-1-1H46V7a1,1,0,0,0-1-1H18a4,4,0,0,0-8,0H7A1,1,0,0,0,6,7V59A1,1,0,0,0,7,60Zm31,0H12V50H38ZM56,44v3H40V44Zm0,9v2H40V53h5V51H40V49H56v2H51v2ZM40,60V57H56v3ZM54,42H42V40H54Zm2-4H40V36H56ZM48,12V34H46V12ZM14,4a2,2,0,0,1,2,2H12A2,2,0,0,1,14,4ZM8,8h8v3a1,1,0,0,1-2,0V10H12v1a3,3,0,0,0,6,0V8H44V34H39a1,1,0,0,0-1,1v4a1,1,0,0,0,1,1h1v2H39a1,1,0,0,0-1,1v5H11a1,1,0,0,0-1,1v9H8Z" id="svg_2"/><rect x="47" y="51" width="2" height="2" id="svg_3"/><path d="M58,30H56v2h2a2,2,0,0,1,2,2V45h2V34A4,4,0,0,0,58,30Z" id="svg_4"/><rect x="60" y="47" width="2" height="2" id="svg_5"/><rect x="2" y="15" width="2" height="20" id="svg_6"/><rect x="2" y="11" width="2" height="2" id="svg_7"/><path d="M20,23h3v3a1,1,0,0,0,1,1h4a1,1,0,0,0,1-1V23h3a1,1,0,0,0,1-1V18a1,1,0,0,0-1-1H29V14a1,1,0,0,0-1-1H24a1,1,0,0,0-1,1v3H20a1,1,0,0,0-1,1v4A1,1,0,0,0,20,23Zm1-4h3a1,1,0,0,0,1-1V15h2v3a1,1,0,0,0,1,1h3v2H28a1,1,0,0,0-1,1v3H25V22a1,1,0,0,0-1-1H21Z" id="svg_8"/><path d="M25,58a3,3,0,1,0-3-3A3,3,0,0,0,25,58Zm0-4a1,1,0,1,1-1,1A1,1,0,0,1,25,54Z" id="svg_9"/><path d="M17,58a3,3,0,1,0-3-3A3,3,0,0,0,17,58Zm0-4a1,1,0,1,1-1,1A1,1,0,0,1,17,54Z" id="svg_10"/><path d="M33,58a3,3,0,1,0-3-3A3,3,0,0,0,33,58Zm0-4a1,1,0,1,1-1,1A1,1,0,0,1,33,54Z" id="svg_11"/><rect x="13" y="31" width="2" height="2" id="svg_12"/><rect x="17" y="31" width="18" height="2" id="svg_13"/><rect x="11" y="35" width="24" height="2" id="svg_14"/><rect x="11" y="39" width="24" height="2" id="svg_15"/><rect x="11" y="43" width="20" height="2" id="svg_16"/><rect x="39" y="11" width="2" height="2" id="svg_17"/><rect x="39" y="15" width="2" height="2" id="svg_18"/></g></g></svg>